<svg xmlns="http://www.w3.org/2000/svg" width="8.659" height="9.896" viewBox="0 0 8.659 9.896">
  <path id="Icon_awesome-copy" data-name="Icon awesome-copy" d="M6.185,8.659v.773a.464.464,0,0,1-.464.464H.464A.464.464,0,0,1,0,9.432V2.319a.464.464,0,0,1,.464-.464H1.855V7.576A1.084,1.084,0,0,0,2.938,8.659Zm0-6.649V0H2.938a.464.464,0,0,0-.464.464V7.576a.464.464,0,0,0,.464.464H8.195a.464.464,0,0,0,.464-.464v-5.1H6.649A.465.465,0,0,1,6.185,2.01Zm2.338-.6L7.248.136A.464.464,0,0,0,6.92,0H6.8V1.855H8.659V1.738a.464.464,0,0,0-.136-.328Z" fill="#757575"/>
</svg>