<svg xmlns="http://www.w3.org/2000/svg" width="32.93" height="24.697" viewBox="0 0 32.93 24.697">
  <path id="Icon_metro-profile" data-name="Icon metro-profile" d="M35.077,11.24h-2.3V7.785L28.02,7.712l.025,3.528H13.76l.1-3.528L9.2,7.785v3.528L6.851,11.24A2.353,2.353,0,0,0,4.5,13.592V30.057A2.353,2.353,0,0,0,6.851,32.41H35.077a2.353,2.353,0,0,0,2.352-2.352V13.592A2.353,2.353,0,0,0,35.077,11.24ZM29.2,8.888h2.352v4.7H29.2ZM13.907,16.9c1.421,0,2.573,1.514,2.573,3.381s-1.153,3.381-2.573,3.381-2.573-1.514-2.573-3.381S12.487,16.9,13.907,16.9ZM10.379,8.888h2.352v4.7H10.379ZM8.811,27.644s.279-2.237.913-2.659a9.02,9.02,0,0,1,2.458-.7s1.183,1.264,1.686,1.264,1.685-1.264,1.685-1.264a8.992,8.992,0,0,1,2.459.7c.744.5.93,2.659.93,2.659H8.811Zm23.913-1.115H22.14V25.353H32.724Zm0-2.352H22.14V23H32.724Zm0-2.352H22.14V20.649H32.724Zm0-2.352H22.14V18.3H32.724Z" transform="translate(-4.499 -7.712)" fill="#fbfbff"/>
</svg>
