<svg xmlns="http://www.w3.org/2000/svg" width="23.796" height="27.195" viewBox="0 0 23.796 27.195">
    <path id="Icon_awesome-paperclip" data-name="Icon awesome-paperclip"
          d="M2.3,24.76A8.322,8.322,0,0,1,2.371,13.2l11.142-11.4a5.944,5.944,0,0,1,8.534,0,6.183,6.183,0,0,1,0,8.619L12.334,20.35A3.963,3.963,0,0,1,6.6,20.3a4.116,4.116,0,0,1,.077-5.681l7.635-7.8a.85.85,0,0,1,1.2-.013l1.214,1.189a.85.85,0,0,1,.013,1.2l-7.634,7.8a.718.718,0,0,0-.034.972.566.566,0,0,0,.833.009l9.712-9.925a2.782,2.782,0,0,0,0-3.867,2.548,2.548,0,0,0-3.673,0L4.8,15.579a4.919,4.919,0,0,0-.063,6.815,4.53,4.53,0,0,0,6.536.015l9.139-9.348a.85.85,0,0,1,1.2-.014l1.215,1.188a.85.85,0,0,1,.014,1.2L13.7,24.785A7.925,7.925,0,0,1,2.3,24.76Z"
          transform="translate(0 0)" fill="#fbfbff"/>
</svg>
